# xmcd
#
# Track frame offsets: 
#        150
#        13881
#        30686
#        46676
#        62733
#        81250
#        94197
#        106597
#        120532
#        134696
#        154320
#        169526
#        186739
#        206651
#        223707
#        243529
#        257418
#        285931
#        303462
#        310821
#
# Disc length: 4431 seconds
#
# Revision: 0
# Processed by: cddbd v1.5.2PL0 Copyright (c) Steve Scherf et al.
# Submitted via: ExactAudioCopy v0.99pb4
#
DISCID=1a114d14
DTITLE=Perfect - 7 Days a Week
DYEAR=1997
DGENRE=Ambient
TTITLE0=Better Days
TTITLE1=7 Days a Week
TTITLE2=Making of an Asshole
TTITLE3=Me
TTITLE4=Turn it Up
TTITLE5=Little Drum
TTITLE6=Catch 'em Where They Land
TTITLE7=Thing I Call My Life
TTITLE8=Flap
TTITLE9=Peg Song
TTITLE10=Yap Yap
TTITLE11=Every Little Thing Counts
TTITLE12=The Hardest Part
TTITLE13=Changing Her Disease
TTITLE14=Can't Put Your Arm Around a Memory
TTITLE15=Couldn't Wake You Up
TTITLE16=Tiny Pieces
TTITLE17=Ain't You Had Enough
TTITLE18=Come On, Get Happy
TTITLE19=Your Demise
EXTD=
EXTT0=
EXTT1=
EXTT2=
EXTT3=
EXTT4=
EXTT5=
EXTT6=
EXTT7=
EXTT8=
EXTT9=
EXTT10=
EXTT11=
EXTT12=
EXTT13=
EXTT14=
EXTT15=
EXTT16=
EXTT17=
EXTT18=
EXTT19=
PLAYORDER=
